<svg xmlns="http://www.w3.org/2000/svg" viewBox="0 0 128 128" width="128" height="128">
  <defs>
    <!-- Blood drop gradient - vibrant red -->
    <radialGradient id="bloodGradientV3B" cx="35%" cy="25%" r="65%">
      <stop offset="0%" style="stop-color:#ff4757;stop-opacity:1" />
      <stop offset="50%" style="stop-color:#dc143c;stop-opacity:1" />
      <stop offset="100%" style="stop-color:#8b0000;stop-opacity:1" />
    </radialGradient>
    <!-- Drop shadow filter -->
    <filter id="shadowB" x="-20%" y="-20%" width="140%" height="140%">
      <feDropShadow dx="2" dy="4" stdDeviation="5" flood-color="#8b0000" flood-opacity="0.4"/>
    </filter>
  </defs>
  
  <!-- Blood drop shape - full size with colored shadow -->
  <path d="M 64 8 C 64 8 24 52 24 82 C 24 104 42 120 64 120 C 86 120 104 104 104 82 C 104 52 64 8 64 8 Z" 
        fill="url(#bloodGradientV3B)" 
        filter="url(#shadowB)"/>
  
  <!-- Blood drop glossy highlight -->
  <path d="M 64 16 C 64 16 40 48 40 74 Q 52 48 64 48 L 64 16 Z" 
        fill="#ffffff" opacity="0.4"/>
  
  <!-- Shine spot -->
  <ellipse cx="50" cy="40" rx="7" ry="12" fill="#ffffff" opacity="0.45"/>
  
  <!-- Bottom reflection arc -->
  <path d="M 46 106 Q 64 116, 82 106" 
        stroke="#ffaaaa" stroke-width="2.5" fill="none" opacity="0.5"/>
  
  <!-- ECG/Pulse line - wider amplitude -->
  <polyline points="8,70 24,70 36,70 44,56 52,84 60,44 68,88 76,56 84,70 104,70 120,70" 
            stroke="#ffffff" stroke-width="3" fill="none" 
            stroke-linecap="round" stroke-linejoin="round"/>
</svg>
